<svg xmlns="http://www.w3.org/2000/svg" width="18" height="18.126"><path data-name="Path 1321" d="M9 0a8.774 8.774 0 00-9 8.506 8.31 8.31 0 003.226 6.526.61.61 0 10.756-.956 7.1 7.1 0 01-2.764-5.57A7.555 7.555 0 019 1.219a7.555 7.555 0 017.781 7.287A7.555 7.555 0 019 15.794a8.287 8.287 0 01-2.2-.3.609.609 0 00-.462.057l-2.524 1.43a.61.61 0 10.6 1.061l2.312-1.304a9.522 9.522 0 002.277.275 8.774 8.774 0 009-8.507A8.773 8.773 0 009 0z"/><path data-name="Path 1322" d="M9.259 5.839a.609.609 0 00-.65.088l-4.7 3.987a.61.61 0 10.788.93l3.7-3.136v2.914a.61.61 0 001 .465l4.7-3.987a.61.61 0 00-.788-.93l-3.7 3.136V6.392a.609.609 0 00-.35-.553z"/></svg>