<svg xmlns="http://www.w3.org/2000/svg" width="18" height="22"><defs><clipPath id="a"><path fill="#fff" d="M8.695.633a8.695 8.695 0 018.695 8.695c0 1.23-.464 3.162-1.403 4.725-2.373 3.954-7.292 7.58-7.292 7.58s-4.832-3.343-7.394-7.58C.525 12.773 0 10.572 0 9.328A8.695 8.695 0 018.695.633z"/></clipPath></defs><path fill="none" stroke="#000" stroke-miterlimit="20" stroke-width="2" d="M8.695.633a8.695 8.695 0 018.695 8.695c0 1.23-.464 3.162-1.403 4.725-2.373 3.954-7.292 7.58-7.292 7.58v0s-4.832-3.343-7.394-7.58C.525 12.773 0 10.572 0 9.328A8.695 8.695 0 018.695.633z" clip-path="url(&quot;#a&quot;)"/><path d="M5 9.5a3.5 3.5 0 117 0 3.5 3.5 0 01-7 0z"/></svg>