<?xml version="1.0" encoding="utf-8"?>
<!-- Generator: Adobe Illustrator 16.0.0, SVG Export Plug-In . SVG Version: 6.00 Build 0)  -->
<!DOCTYPE svg PUBLIC "-//W3C//DTD SVG 1.1//EN" "http://www.w3.org/Graphics/SVG/1.1/DTD/svg11.dtd">
<svg version="1.1" id="Brumate_Logo_1_" xmlns="http://www.w3.org/2000/svg" xmlns:xlink="http://www.w3.org/1999/xlink" x="0px"
	 y="0px" width="8185.375px" height="1900.8px" viewBox="396.368 1809.053 8185.375 1900.8"
	 enable-background="new 396.368 1809.053 8185.375 1900.8" xml:space="preserve">
<g id="Brumate_Logo">
	<g>
		<path d="M1478.642,2573.011c0-180.076-209.179-200.085-209.179-200.085H787.441v827.621h482.021
			c254.652-28.193,254.652-209.179,254.652-209.179c-7.275-190.989-200.084-209.179-200.084-209.179
			C1502.288,2718.526,1478.642,2573.011,1478.642,2573.011z M1433.168,2982.273c0,0-9.095,137.331-181.895,154.611H869.295v-327.411
			h391.073C1260.368,2809.474,1424.983,2813.111,1433.168,2982.273z M1223.989,2745.811h-345.6V2436.59h363.789
			c0,0,151.882,14.551,154.61,154.61C1396.789,2591.2,1385.875,2737.625,1223.989,2745.811z M741.969,3709.853h2119.073v-45.474
			H787.441c-321.953-14.552-345.6-354.694-345.6-354.694V2163.747c20.009-300.126,318.316-309.221,318.316-309.221h7503.157
			c272.843,20.918,281.938,318.315,281.938,318.315v1145.938c-23.646,372.884-300.127,345.6-300.127,345.6H3706.853v45.474h4556.463
			c333.776-18.189,318.316-372.884,318.316-372.884V2172.842c1.818-336.505-281.938-363.789-281.938-363.789H732.873
			c-309.221,23.646-336.505,327.41-336.505,327.41V3300.59C396.368,3653.465,741.969,3709.853,741.969,3709.853z M8154.179,2409.305
			v-36.379h-636.632v827.621h645.727v-36.379h-600.252v-363.789h509.305v-45.474h-509.305v-345.601H8154.179z M6844.537,3191.453
			V2418.4h372.884v-45.475h-782.147v45.475h363.789v773.053H6844.537z M6044.2,2909.516l145.516,281.938h45.474l-418.357-818.527
			h-45.475L5353,3191.453h45.474l145.516-281.938H6044.2z M5789.547,2418.4l236.463,463.831h-463.831L5789.547,2418.4z
			 M2551.821,2627.579c0,0-15.462-231.916-263.748-254.653h-436.547v827.621h90.947v-309.221H2242.6l236.463,309.221h90.948
			l-236.464-318.315C2333.547,2882.231,2540.907,2843.124,2551.821,2627.579z M2260.789,2827.663h-318.315V2436.59h327.41
			c0,0,181.896,9.094,190.989,209.179C2460.873,2645.769,2457.236,2812.202,2260.789,2827.663z M3115.695,2127.368v100.042h72.758
			v-100.042H3115.695z M3706.853,2818.568v-445.643H3625v445.643c0,317.406-327.41,327.41-327.41,327.41
			c-319.226,0.91-327.411-309.221-327.411-309.221v-463.832h-81.853v472.927c8.186,343.781,354.695,354.694,354.695,354.694v463.832
			h-245.559v45.474h591.158v-45.474h-254.652v-463.832C3739.594,3176.9,3706.853,2818.568,3706.853,2818.568z M3397.631,2127.368
			v109.137h81.854v-109.137H3397.631z M5052.873,3200.547v-827.621H5007.4l-436.548,618.442L4143.4,2372.926h-54.568v827.621h54.568
			v-745.768l409.263,582.063h36.379l418.358-582.063v745.768H5052.873z"/>
	</g>
</g>
</svg>
