<svg xmlns="http://www.w3.org/2000/svg" width="50" height="50" viewBox="0 0 25 25"><path d="M4.183 19.452c4.296-4.819 11.84-4.818 16.134 0M12.25 1.436c5.963 0 10.814 4.85 10.814 10.814a10.76 10.76 0 01-1.852 6.054c-4.831-5.197-13.084-5.206-17.924 0a10.765 10.765 0 01-1.852-6.054c0-5.963 4.85-10.814 10.814-10.814zM24.5 12.25C24.5 5.48 19.021 0 12.25 0 5.48 0 0 5.479 0 12.25 0 18.96 5.433 24.5 12.25 24.5c6.789 0 12.25-5.509 12.25-12.25z"/><path d="M9.379 7.226a2.874 2.874 0 012.871-2.872 2.874 2.874 0 012.871 2.872V8.66a2.874 2.874 0 01-2.871 2.871 2.874 2.874 0 01-2.871-2.87zm2.871 5.742a4.312 4.312 0 004.307-4.307V7.226a4.312 4.312 0 00-4.307-4.307 4.312 4.312 0 00-4.307 4.307V8.66a4.312 4.312 0 004.307 4.307z"/></svg>